<svg xmlns="http://www.w3.org/2000/svg" viewBox="0 0 200 100">
  <!-- Car Body -->
  <path d="M35 50 L45 25 L155 25 L165 50 L165 70 L35 70 Z" fill="#22C55E"/>
  
  <!-- Windows -->
  <path d="M65 30 L85 30 L85 45 L65 45 Z" fill="#1E293B"/>
  <path d="M115 30 L135 30 L135 45 L115 45 Z" fill="#1E293B"/>
  
  <!-- Wheels -->
  <circle cx="60" cy="70" r="18" fill="#1E293B"/>
  <circle cx="140" cy="70" r="18" fill="#1E293B"/>
  <circle cx="60" cy="70" r="10" fill="#4B5563"/>
  <circle cx="140" cy="70" r="10" fill="#4B5563"/>
  
  <!-- Details -->
  <path d="M35 55 L165 55" stroke="#15803D" stroke-width="2"/>
  <path d="M95 25 L105 25" stroke="#15803D" stroke-width="4"/>
  
  <!-- Side Vents -->
  <path d="M70 45 L80 45 L80 55 L70 55" fill="#15803D"/>
  <path d="M120 45 L130 45 L130 55 L120 55" fill="#15803D"/>
  
  <!-- Headlights -->
  <path d="M40 50 L50 35" stroke="#FCD34D" stroke-width="3"/>
  <path d="M150 35 L160 50" stroke="#FCD34D" stroke-width="3"/>
</svg>