<svg xmlns="http://www.w3.org/2000/svg" viewBox="0 0 400 200">
  <!-- Road Background -->
  <rect width="400" height="200" fill="#4B5563"/>
  
  <!-- Highway Lanes -->
  <rect x="50" y="40" width="300" height="120" fill="#1F2937"/>
  
  <!-- Lane Markings -->
  <line x1="50" y1="100" x2="350" y2="100" stroke="#F3F4F6" stroke-width="4" stroke-dasharray="20 10"/>
  <line x1="50" y1="60" x2="350" y2="60" stroke="#F3F4F6" stroke-width="2" stroke-dasharray="10 5"/>
  <line x1="50" y1="140" x2="350" y2="140" stroke="#F3F4F6" stroke-width="2" stroke-dasharray="10 5"/>
  
  <!-- Road Edges -->
  <line x1="50" y1="40" x2="350" y2="40" stroke="#F3F4F6" stroke-width="4"/>
  <line x1="50" y1="160" x2="350" y2="160" stroke="#F3F4F6" stroke-width="4"/>
  
  <!-- Road Signs -->
  <rect x="70" y="20" width="30" height="20" fill="#2563EB"/>
  <rect x="250" y="20" width="30" height="20" fill="#2563EB"/>
  
  <!-- Barriers -->
  <rect x="50" y="35" width="300" height="5" fill="#DC2626"/>
  <rect x="50" y="160" width="300" height="5" fill="#DC2626"/>
  
  <!-- Distance Markers -->
  <circle cx="100" cy="30" r="3" fill="#F3F4F6"/>
  <circle cx="200" cy="30" r="3" fill="#F3F4F6"/>
  <circle cx="300" cy="30" r="3" fill="#F3F4F6"/>
  
  <!-- City Skyline Background -->
  <path d="M0 20 L30 20 L40 10 L50 20 L70 15 L80 25 L100 20 L120 10 L140 20 L160 15 L180 25 L200 20 L220 10 L240 20 L260 15 L280 25 L300 20 L320 10 L340 20 L360 15 L380 25 L400 20 L400 0 L0 0 Z" fill="#1E293B"/>
</svg>