<svg xmlns="http://www.w3.org/2000/svg" viewBox="0 0 200 100">
  <!-- Car Body -->
  <path d="M30 50 L60 35 L140 35 L170 50 L170 70 L30 70 Z" fill="#0066CC"/>
  
  <!-- Windows -->
  <path d="M65 40 L85 40 L85 55 L65 55 Z" fill="#87CEEB"/>
  <path d="M90 40 L110 40 L110 55 L90 55 Z" fill="#87CEEB"/>
  <path d="M115 40 L135 40 L135 55 L115 55 Z" fill="#87CEEB"/>
  
  <!-- Wheels -->
  <circle cx="60" cy="70" r="15" fill="#1A1A1A"/>
  <circle cx="60" cy="70" r="8" fill="#4A4A4A"/>
  <circle cx="140" cy="70" r="15" fill="#1A1A1A"/>
  <circle cx="140" cy="70" r="8" fill="#4A4A4A"/>
  
  <!-- Details -->
  <path d="M30 60 L170 60" stroke="#003366" stroke-width="2"/>
  <rect x="35" y="45" width="10" height="5" fill="#FFD700"/> <!-- Headlight -->
  <rect x="155" y="45" width="10" height="5" fill="#FF4444"/> <!-- Taillight -->
  
  <!-- Aerodynamic Features -->
  <path d="M30 50 C40 45 50 45 60 50" fill="#003366"/>
  <path d="M140 50 C150 45 160 45 170 50" fill="#003366"/>
  
  <!-- Side Vents -->
  <path d="M80 55 L100 55 L100 65 L80 65" fill="#003366"/>
  <path d="M110 55 L130 55 L130 65 L110 65" fill="#003366"/>
  
  <!-- Front Splitter -->
  <rect x="30" y="70" width="140" height="3" fill="#003366"/>
</svg>